<?xml version="1.0" encoding="UTF-8"?>
<svg id="Layer_1" data-name="Layer 1" xmlns="http://www.w3.org/2000/svg" xmlns:xlink="http://www.w3.org/1999/xlink" viewBox="0 0 1920 1080">
  <defs>
    <style>
      .cls-1 {
        fill: #fff;
      }

      .cls-2 {
        clip-path: url(#clippath-1);
      }

      .cls-3 {
        clip-path: url(#clippath-3);
      }

      .cls-4 {
        clip-path: url(#clippath-2);
      }

      .cls-5 {
        clip-path: url(#clippath);
      }
    </style>
    <clipPath id="clippath">
      <path d="M618.27,518.66c0,3.6.54,7.07,1.55,10.33h0,0c.78,2.52,1.83,4.92,3.13,7.16h0s4.55,7.86,4.55,7.86l2.8,4.85c.32-.03.65-.05.98-.05,5.82,0,10.54,4.72,10.54,10.54s-4.72,10.55-10.54,10.55-10.54-4.72-10.54-10.55c0-2.18.66-4.2,1.79-5.88l-12.39-20.62c-10.02,5.94-16.74,16.86-16.74,29.36,0,18.84,15.27,34.1,34.1,34.1,13.7,0,25.51-8.08,30.93-19.73h0l6.79-11.69c-1.02-1.62-1.62-3.55-1.62-5.61,0-5.82,4.72-10.54,10.54-10.54s10.54,4.72,10.54,10.54-4.72,10.54-10.54,10.54c-.21,0-.43,0-.64-.02l-13.15,22.32c4.85,2.65,10.41,4.15,16.32,4.15,18.83,0,34.1-15.27,34.1-34.1,0-18.83-15.27-34.1-34.1-34.1h-13.91c-1.7,3.55-5.32,6-9.52,6-5.82,0-10.54-4.72-10.54-10.54s4.72-10.54,10.54-10.54c4.06,0,7.58,2.3,9.34,5.66h25.65c0-19.33-15.67-34.99-34.99-34.99-19.32,0-34.99,15.66-34.99,34.99"/>
    </clipPath>
    <clipPath id="clippath-1">
      <path d="M618.27,518.66c0,3.6.54,7.07,1.55,10.33h0,0c.78,2.52,1.83,4.92,3.13,7.16h0s4.55,7.86,4.55,7.86l2.8,4.85c.32-.03.65-.05.98-.05,5.82,0,10.54,4.72,10.54,10.54s-4.72,10.55-10.54,10.55-10.54-4.72-10.54-10.55c0-2.18.66-4.2,1.79-5.88l-12.39-20.62c-10.02,5.94-16.74,16.86-16.74,29.36,0,18.84,15.27,34.1,34.1,34.1,13.7,0,25.51-8.08,30.93-19.73h0l6.79-11.69c-1.02-1.62-1.62-3.55-1.62-5.61,0-5.82,4.72-10.54,10.54-10.54s10.54,4.72,10.54,10.54-4.72,10.54-10.54,10.54c-.21,0-.43,0-.64-.02l-13.15,22.32c4.85,2.65,10.41,4.15,16.32,4.15,18.83,0,34.1-15.27,34.1-34.1,0-18.83-15.27-34.1-34.1-34.1h-13.91c-1.7,3.55-5.32,6-9.52,6-5.82,0-10.54-4.72-10.54-10.54s4.72-10.54,10.54-10.54c4.06,0,7.58,2.3,9.34,5.66h25.65c0-19.33-15.67-34.99-34.99-34.99-19.32,0-34.99,15.66-34.99,34.99"/>
    </clipPath>
    <clipPath id="clippath-2">
      <path d="M-1565-891.55c0,51.69,7.82,101.58,22.31,148.52h-.03l.04.03c11.17,36.22,26.33,70.7,44.97,102.91v.04l65.36,112.95,40.32,69.68c4.64-.43,9.31-.66,14.07-.66,83.7,0,151.54,67.86,151.54,151.54s-67.84,151.57-151.54,151.57-151.54-67.87-151.54-151.57c0-31.28,9.47-60.31,25.7-84.46l-178.03-296.36c-144.03,85.36-240.65,242.38-240.67,421.97.01,270.73,219.45,490.16,490.14,490.16,196.93,0,366.69-116.14,444.62-283.64h.04l97.55-167.98c-14.72-23.36-23.23-51.01-23.23-80.65,0-83.68,67.84-151.55,151.54-151.55s151.55,67.87,151.55,151.55-67.87,151.54-151.55,151.54c-3.08,0-6.12-.09-9.14-.27l-189.01,320.81c69.65,38.03,149.6,59.68,234.57,59.68,270.71.01,490.16-219.42,490.16-490.16-.03-270.69-219.45-490.14-490.16-490.13h-199.92c-24.39,51.01-76.47,86.25-136.76,86.25-83.7,0-151.55-67.89-151.55-151.57s67.86-151.55,151.55-151.55c58.36,0,108.99,33,134.32,81.35h368.64c-.03-277.76-225.17-502.9-502.96-502.92-277.75,0-502.92,225.16-502.92,502.92"/>
    </clipPath>
    <clipPath id="clippath-3">
      <path class="cls-1" d="M-1565,1073.98c0,51.69,7.82,101.58,22.31,148.52h-.03l.04.03c11.17,36.22,26.33,70.7,44.97,102.91v.04l65.36,112.95,40.32,69.68c4.64-.43,9.31-.66,14.07-.66,83.7,0,151.54,67.86,151.54,151.54s-67.84,151.57-151.54,151.57-151.54-67.87-151.54-151.57c0-31.28,9.47-60.31,25.7-84.46l-178.03-296.36c-144.03,85.36-240.65,242.38-240.67,421.97.01,270.73,219.45,490.16,490.14,490.16,196.93,0,366.69-116.14,444.62-283.64h.04l97.55-167.98c-14.72-23.36-23.23-51.01-23.23-80.65,0-83.68,67.84-151.55,151.54-151.55s151.55,67.87,151.55,151.55-67.87,151.54-151.55,151.54c-3.08,0-6.12-.09-9.14-.27l-189.01,320.81c69.65,38.03,149.6,59.68,234.57,59.68,270.71.01,490.16-219.42,490.16-490.16-.03-270.69-219.45-490.14-490.16-490.13h-199.92c-24.39,51.01-76.47,86.25-136.76,86.25-83.7,0-151.55-67.89-151.55-151.57s67.86-151.55,151.55-151.55c58.36,0,108.99,33,134.32,81.35h368.64c-.03-277.76-225.17-502.9-502.96-502.92-277.75,0-502.92,225.16-502.92,502.92"/>
    </clipPath>
  </defs>
  <g>
    <g>
      <path d="M618.27,518.66c0,3.6.54,7.07,1.55,10.33h0,0c.78,2.52,1.83,4.92,3.13,7.16h0s4.55,7.86,4.55,7.86l2.8,4.85c.32-.03.65-.05.98-.05,5.82,0,10.54,4.72,10.54,10.54s-4.72,10.55-10.54,10.55-10.54-4.72-10.54-10.55c0-2.18.66-4.2,1.79-5.88l-12.39-20.62c-10.02,5.94-16.74,16.86-16.74,29.36,0,18.84,15.27,34.1,34.1,34.1,13.7,0,25.51-8.08,30.93-19.73h0l6.79-11.69c-1.02-1.62-1.62-3.55-1.62-5.61,0-5.82,4.72-10.54,10.54-10.54s10.54,4.72,10.54,10.54-4.72,10.54-10.54,10.54c-.21,0-.43,0-.64-.02l-13.15,22.32c4.85,2.65,10.41,4.15,16.32,4.15,18.83,0,34.1-15.27,34.1-34.1,0-18.83-15.27-34.1-34.1-34.1h-13.91c-1.7,3.55-5.32,6-9.52,6-5.82,0-10.54-4.72-10.54-10.54s4.72-10.54,10.54-10.54c4.06,0,7.58,2.3,9.34,5.66h25.65c0-19.33-15.67-34.99-34.99-34.99-19.32,0-34.99,15.66-34.99,34.99"/>
      <g class="cls-5">
        <rect x="570.84" y="458.98" width="162.51" height="162.04" transform="translate(-194.31 560.67) rotate(-41.03)"/>
      </g>
    </g>
    <g>
      <path d="M618.27,518.66c0,3.6.54,7.07,1.55,10.33h0,0c.78,2.52,1.83,4.92,3.13,7.16h0s4.55,7.86,4.55,7.86l2.8,4.85c.32-.03.65-.05.98-.05,5.82,0,10.54,4.72,10.54,10.54s-4.72,10.55-10.54,10.55-10.54-4.72-10.54-10.55c0-2.18.66-4.2,1.79-5.88l-12.39-20.62c-10.02,5.94-16.74,16.86-16.74,29.36,0,18.84,15.27,34.1,34.1,34.1,13.7,0,25.51-8.08,30.93-19.73h0l6.79-11.69c-1.02-1.62-1.62-3.55-1.62-5.61,0-5.82,4.72-10.54,10.54-10.54s10.54,4.72,10.54,10.54-4.72,10.54-10.54,10.54c-.21,0-.43,0-.64-.02l-13.15,22.32c4.85,2.65,10.41,4.15,16.32,4.15,18.83,0,34.1-15.27,34.1-34.1,0-18.83-15.27-34.1-34.1-34.1h-13.91c-1.7,3.55-5.32,6-9.52,6-5.82,0-10.54-4.72-10.54-10.54s4.72-10.54,10.54-10.54c4.06,0,7.58,2.3,9.34,5.66h25.65c0-19.33-15.67-34.99-34.99-34.99-19.32,0-34.99,15.66-34.99,34.99"/>
      <g class="cls-2">
        <rect x="570.84" y="458.98" width="162.51" height="162.04" transform="translate(-194.31 560.67) rotate(-41.03)"/>
      </g>
    </g>
    <g>
      <path d="M770.28,509.49h14.93l30.46,79.96h-15.53l-6.14-16.86h-33.35l-6.02,16.86h-14.57l30.22-79.96ZM764.86,560.79h24.93l-12.52-34.8-12.4,34.8Z"/>
      <polygon points="845.58 530.44 859.31 530.44 869.79 571.99 878.58 530.44 893.03 530.44 877.01 589.45 864.37 589.45 852.45 546.1 840.64 589.45 828 589.45 811.99 530.44 826.44 530.44 835.23 571.99 845.58 530.44"/>
      <path d="M892.87,560.06c0-18.18,11.68-30.83,29.14-30.83,18.78,0,29.74,14.33,28.66,34.8h-44.31c.24,9.75,6.74,16.14,15.77,16.14,8.43,0,12.64-3.97,14.69-9.27l12.89,1.69c-2.77,8.79-11.32,18.3-27.34,18.3-19.63,0-29.5-13.61-29.5-30.83M906.35,554.16h30.71c-.36-9.03-6.86-14.69-14.93-14.69s-15.29,4.46-15.77,14.69"/>
      <path d="M994.99,548.62c-1.33-5.78-6.62-9.27-14.09-9.27-6.02,0-11.08,2.17-11.08,6.14,0,3.73,3.61,5.78,9.15,6.98l6.99,1.45c12.04,2.65,22.28,6.02,22.28,17.58,0,12.52-11.8,19.39-25.77,19.39-15.53,0-25.53-8.79-26.73-19.51l13.01-1.93c1.08,6.38,5.66,11.32,14.21,11.32,7.35,0,12.16-2.65,12.16-7.47s-5.18-6.5-11.32-7.83l-7.83-1.69c-10.36-2.17-18.79-6.38-18.79-17.46s11.2-17.1,24.69-17.1c12.4,0,23.36,6.14,25.65,17.7l-12.52,1.68Z"/>
      <path d="M1077.41,530.44h13.37v7.35c3.25-5.42,9.03-8.55,17.34-8.55,9.99,0,14.45,4.46,17.1,9.63,4.58-6.38,10.72-9.63,20.11-9.63,6.74,0,12.04,2.29,15.17,6.02,3.25,3.85,4.7,9.39,4.7,17.7v36.49h-13.37v-33.6c0-5.66-.6-9.63-2.53-12.04-1.69-2.29-4.33-3.49-8.55-3.49-9.75,0-12.76,7.95-12.76,18.3v30.83h-13.37v-33.6c0-5.78-.6-9.75-2.53-12.16-1.81-2.17-4.46-3.37-8.43-3.37-9.87,0-12.88,7.95-12.88,18.3v30.83h-13.37v-59Z"/>
      <path d="M1176.41,548.38c.84-11.68,10.36-19.39,25.89-19.39,17.1,0,24.44,6.14,24.44,22.64,0,3.85-.24,13.73-.24,16.98,0,7.59.36,13.73,1.2,20.83h-12.52l-.36-7.1c-3.73,5.54-9.51,8.55-19.15,8.55-13.61,0-21.31-9.15-21.31-19.27,0-5.78,2.65-10.11,6.5-12.76,5.3-3.61,12.52-5.06,21.56-6.14l11.08-1.2v-2.05c0-8.07-4.82-10.48-11.92-10.48-7.59,0-12.16,3.49-12.76,9.75l-12.4-.36ZM1213.98,561.27l-11.2,1.2c-10.11,1.08-14.57,3.85-14.57,9.27,0,5.06,3.97,8.67,10.36,8.67,7.83,0,15.41-4.46,15.41-15.53v-3.61Z"/>
      <path d="M1239.51,513.34h13.37v17.1h12.04v10.23h-12.04v30.59c0,6.14,1.44,7.58,7.1,7.58h4.82v10.6h-9.75c-12.88,0-15.53-3.49-15.53-15.77v-32.99h-8.91v-10.23h8.91v-17.1Z"/>
      <path d="M1268.73,560.06c0-18.18,11.68-30.83,29.14-30.83,18.79,0,29.74,14.33,28.66,34.8h-44.31c.24,9.75,6.74,16.14,15.77,16.14,8.43,0,12.64-3.97,14.69-9.27l12.89,1.69c-2.77,8.79-11.32,18.3-27.34,18.3-19.63,0-29.5-13.61-29.5-30.83M1282.22,554.16h30.71c-.36-9.03-6.86-14.69-14.93-14.69s-15.29,4.46-15.77,14.69"/>
      <path d="M1067.12,542.38l-7.54,7.52c-1.63,1.63-2.34,3.91-2.1,6.2.13,1.25.2,2.58.2,3.99,0,13.36-6.15,20.1-15.17,20.1-2.14,0-4.12-.4-5.9-1.18-2.65-1.16-5.76-.36-7.81,1.68l-4.45,4.45c5.07,3.9,11.47,5.76,18.15,5.76,15.17,0,28.9-9.63,28.9-30.82,0-7.21-1.59-13.11-4.29-17.71M1027.34,560.09c0-13.39,6.26-20.13,15.17-20.13,2.16,0,4.16.38,5.95,1.16,2.65,1.15,5.75.33,7.79-1.71l4.38-4.38c-5.07-3.93-11.47-5.79-18.12-5.79-15.17,0-28.9,9.63-28.9,30.85,0,7.21,1.59,13.06,4.29,17.68l7.56-7.56c1.62-1.62,2.33-3.89,2.08-6.17-.13-1.24-.2-2.56-.2-3.95"/>
    </g>
  </g>
  <g>
    <path d="M-1565-891.55c0,51.69,7.82,101.58,22.31,148.52h-.03l.04.03c11.17,36.22,26.33,70.7,44.97,102.91v.04l65.36,112.95,40.32,69.68c4.64-.43,9.31-.66,14.07-.66,83.7,0,151.54,67.86,151.54,151.54s-67.84,151.57-151.54,151.57-151.54-67.87-151.54-151.57c0-31.28,9.47-60.31,25.7-84.46l-178.03-296.36c-144.03,85.36-240.65,242.38-240.67,421.97.01,270.73,219.45,490.16,490.14,490.16,196.93,0,366.69-116.14,444.62-283.64h.04l97.55-167.98c-14.72-23.36-23.23-51.01-23.23-80.65,0-83.68,67.84-151.55,151.54-151.55s151.55,67.87,151.55,151.55-67.87,151.54-151.55,151.54c-3.08,0-6.12-.09-9.14-.27l-189.01,320.81c69.65,38.03,149.6,59.68,234.57,59.68,270.71.01,490.16-219.42,490.16-490.16-.03-270.69-219.45-490.14-490.16-490.13h-199.92c-24.39,51.01-76.47,86.25-136.76,86.25-83.7,0-151.55-67.89-151.55-151.57s67.86-151.55,151.55-151.55c58.36,0,108.99,33,134.32,81.35h368.64c-.03-277.76-225.17-502.9-502.96-502.92-277.75,0-502.92,225.16-502.92,502.92"/>
    <g class="cls-4">
      <rect x="-2246.75" y="-1749.39" width="2335.74" height="2329.08" transform="translate(118.93 -851.84) rotate(-41.03)"/>
    </g>
  </g>
  <g>
    <path class="cls-1" d="M-1565,1073.98c0,51.69,7.82,101.58,22.31,148.52h-.03l.04.03c11.17,36.22,26.33,70.7,44.97,102.91v.04l65.36,112.95,40.32,69.68c4.64-.43,9.31-.66,14.07-.66,83.7,0,151.54,67.86,151.54,151.54s-67.84,151.57-151.54,151.57-151.54-67.87-151.54-151.57c0-31.28,9.47-60.31,25.7-84.46l-178.03-296.36c-144.03,85.36-240.65,242.38-240.67,421.97.01,270.73,219.45,490.16,490.14,490.16,196.93,0,366.69-116.14,444.62-283.64h.04l97.55-167.98c-14.72-23.36-23.23-51.01-23.23-80.65,0-83.68,67.84-151.55,151.54-151.55s151.55,67.87,151.55,151.55-67.87,151.54-151.55,151.54c-3.08,0-6.12-.09-9.14-.27l-189.01,320.81c69.65,38.03,149.6,59.68,234.57,59.68,270.71.01,490.16-219.42,490.16-490.16-.03-270.69-219.45-490.14-490.16-490.13h-199.92c-24.39,51.01-76.47,86.25-136.76,86.25-83.7,0-151.55-67.89-151.55-151.57s67.86-151.55,151.55-151.55c58.36,0,108.99,33,134.32,81.35h368.64c-.03-277.76-225.17-502.9-502.96-502.92-277.75,0-502.92,225.16-502.92,502.92"/>
    <g class="cls-3">
      <rect class="cls-1" x="-2246.75" y="216.14" width="2335.74" height="2329.08" transform="translate(-1171.28 -369.09) rotate(-41.03)"/>
    </g>
  </g>
</svg>